<svg xmlns="http://www.w3.org/2000/svg" xmlns:xlink="http://www.w3.org/1999/xlink" width="500" zoomAndPan="magnify" viewBox="0 0 375 149.999998" height="200" preserveAspectRatio="xMidYMid meet" version="1.0"><defs><g/><clipPath id="8841575937"><rect x="0" width="230" y="0" height="142"/></clipPath></defs><g transform="matrix(1, 0, 0, 1, 72, -0.000000000000007527)"><g clip-path="url(#8841575937)"><g fill="#3e42f5" fill-opacity="1"><g transform="translate(1.208496, 105.555309)"><g><path d="M 54.765625 4.816406 L 54.765625 -2.410156 L 12.296875 -27.128906 L 54.765625 -51.46875 L 54.765625 -58.570312 L 0 -27.128906 Z M 54.765625 4.816406 "/></g></g></g><g fill="#3e42f5" fill-opacity="1"><g transform="translate(58.126762, 105.555309)"><g><path d="M 106.363281 0 L 106.363281 -58.316406 L 60.722656 -11.664062 L 60.722656 -58.316406 L 15.339844 -11.664062 L 15.339844 -54.132812 L 8.492188 -54.132812 L 8.492188 3.675781 L 53.878906 -42.722656 L 53.878906 3.675781 L 99.515625 -42.722656 L 99.515625 0 Z M 106.363281 0 "/></g></g></g><g fill="#3e42f5" fill-opacity="1"><g transform="translate(172.97743, 105.555309)"><g><path d="M 55.144531 -15.085938 L 15.59375 -38.792969 L 48.425781 -51.46875 L 48.425781 -57.933594 L 1.648438 -39.933594 L 40.949219 -16.480469 L 4.4375 -2.535156 L 4.4375 3.929688 Z M 55.144531 -15.085938 "/></g></g></g></g></g></svg>